# xmcd CD database file
# Copyright (C) 1997 Ti Kan
#
# Track frame offsets:
#  150
#  2277
#  16957
#  41157
#  59795
#  71367
#  97330
#  121082
#  135825
#  151225
#  175142
#
# Disc length: 2581 seconds
#
# Revision: 1
# Processed by: cddbd v1.4b41PL1 Copyright (c) Steve Scherf et al.
# Submitted via: CDWizzard Release:4.24
#
DISCID=860a130b
DTITLE=James Brown and Friends - James Brown Greatest Hits
DYEAR=1900
DGENRE=
TTITLE0=Show Intro
TTITLE1=Papa's Got A Brand New Bag
TTITLE2=How Do You Stop
TTITLE3=Cold Sweat
TTITLE4=Out Of Sight
TTITLE5=When A Man Loves A Woman
TTITLE6=Gimme Your Love
TTITLE7=I'll Go Crazy
TTITLE8=I Got You (I Feel Good)
TTITLE9=Try Me
TTITLE10=Living In America
EXTD=
EXTT0=
EXTT1=
EXTT2=
EXTT3=
EXTT4=
EXTT5=
EXTT6=
EXTT7=
EXTT8=
EXTT9=
EXTT10=
PLAYORDER=
